:SAMPLES-PER-SECOND 30
:FULLY-SPECIFIED
:DEGREES
799
root  1.62545 34.6945 -17.5565 -149.642 60.5252 -166.847
LeftUpLeg  -27.7399 10.9437 0.989763
LeftLeg  11.3399 1.33826 0.178615
LeftFoot  5.89904 0.00709658 0.390597
LeftToes  -5.90202 7.65994e-007 1.12379e-007
Spine  10.9812 3.83573 -1.77078
Spine1  19.5918 10.264 -7.38066
RightShoulder  0.26995 3.11976 -16.9321
RightArm  -6.63392 26.2724 84.4319
RightForeArm  135.672 64.8191 157.548
RightHand  1.79889 -12.5484 -15.875
LeftShoulder1  0.0526964 -3.91183 7.94965
LeftArm  20.6542 5.45929 -64.7854
LeftForeArm  100.022 -79.6656 -102.07
LeftHand  0.189383 -4.06088 -5.71771
HEad  -18.2454 1.64891 -4.35349
RightUpLeg  -33.4994 -12.8103 5.15
RightLeg  18.0558 16.5446 4.17851
RightFoot  17.2923 -0.827085 5.81253
RightToes  -33.7155 -0.170326 -0.276943
800
root  1.61921 34.6951 -17.558 -149.519 60.4592 -167.06
LeftUpLeg  -28.0572 11.0913 0.757628
LeftLeg  11.24 1.11261 0.146318
LeftFoot  6.02552 0.00969376 0.374054
LeftToes  -5.6609 7.65994e-007 1.12379e-007
Spine  11.3417 3.98075 -1.87334
Spine1  20.2345 10.6359 -7.74408
RightShoulder  0.274173 3.40292 -16.5334
RightArm  -6.44477 25.7751 83.761
RightForeArm  135.167 65.3326 156.992
RightHand  1.8009 -12.5525 -15.8964
LeftShoulder1  0.0492806 -4.34077 7.28414
LeftArm  22.4624 5.51368 -64.2902
LeftForeArm  101.39 -79.6352 -102.825
LeftHand  0.290906 -4.60678 -7.60408
HEad  -17.3031 2.59062 -4.2337
RightUpLeg  -33.9645 -13.5316 5.39993
RightLeg  18.2824 17.2314 4.4176
RightFoot  17.1814 -0.854061 6.02623
RightToes  -33.2574 -0.169037 -0.275828
801
root  1.61746 34.7053 -17.5748 -149.311 60.364 -167.176
LeftUpLeg  -28.3353 11.3868 0.513695
LeftLeg  11.0721 0.724452 0.0926823
LeftFoot  6.17605 0.0133279 0.337386
LeftToes  -5.38491 7.65994e-007 1.12379e-007
Spine  11.6379 4.04747 -1.9048
Spine1  20.8064 10.8196 -7.93766
RightShoulder  0.275126 3.5075 -16.149
RightArm  -5.9926 25.2846 83.2728
RightForeArm  134.727 65.8126 156.45
RightHand  1.80678 -12.5289 -15.9706
LeftShoulder1  0.0418815 -4.41273 6.96226
LeftArm  23.9881 5.48025 -64.448
LeftForeArm  97.1059 -79.7761 -98.6866
LeftHand  0.417681 -5.31705 -9.35903
HEad  -16.289 3.09584 -4.00073
RightUpLeg  -34.2138 -13.3976 5.29986
RightLeg  18.2256 17.1603 4.38221
RightFoot  17.2016 -0.852147 6.0069
RightToes  -33.2819 -0.169692 -0.276425
802
root  1.60966 34.704 -17.6005 -149.169 60.3156 -167.242
LeftUpLeg  -28.6069 11.6536 0.29883
LeftLeg  11.1408 0.391341 0.0499468
LeftFoot  6.19151 0.0166658 0.301498
LeftToes  -5.34693 7.65994e-007 1.12379e-007
Spine  11.9177 4.0513 -1.93952
Spine1  21.3518 10.8576 -8.09765
RightShoulder  0.2751 3.63468 -15.8167
RightArm  -5.68003 24.8214 83.0879
RightForeArm  134.271 66.2464 155.941
RightHand  1.78983 -12.5966 -15.7328
LeftShoulder1  0.0372713 -4.67724 6.39893
LeftArm  24.8442 5.76018 -63.9991
LeftForeArm  95.8587 -79.7982 -97.8467
LeftHand  0.477299 -5.92948 -9.57728
HEad  -15.4305 3.67669 -3.91242
RightUpLeg  -34.1447 -12.7487 5.00038
RightLeg  17.7889 16.4762 4.08166
RightFoot  17.2451 -0.818139 5.76874
RightToes  -33.4554 -0.170262 -0.276922
803
root  1.60812 34.6946 -17.6452 -149.125 60.2786 -167.406
LeftUpLeg  -28.871 11.8099 0.0369026
LeftLeg  11.2901 0.20025 0.0254422
LeftFoot  6.06271 0.0191464 0.275294
LeftToes  -5.14839 7.65994e-007 1.12379e-007
Spine  12.1309 3.97751 -1.97746
Spine1  21.7935 10.6947 -8.16806
RightShoulder  0.273785 3.77154 -15.118
RightArm  -5.13645 24.4957 82.8396
RightForeArm  133.923 66.5585 155.562
RightHand  1.77258 -12.5939 -15.583
LeftShoulder1  0.0351481 -5.0273 5.58009
LeftArm  24.8523 6.30951 -63.0921
LeftForeArm  96.9665 -79.7672 -99.6401
LeftHand  0.47163 -6.46628 -8.71364
HEad  -14.1903 4.33262 -3.3962
RightUpLeg  -33.966 -12.4674 4.81548
RightLeg  17.1468 16.0355 3.78857
RightFoot  17.2099 -0.787591 5.57848
RightToes  -33.4955 -0.168717 -0.275511
804
root  1.61479 34.6801 -17.7047 -149.254 60.4238 -167.728
LeftUpLeg  -29.0199 12.0317 -0.34545
LeftLeg  11.3909 0.0164317 0.000905887
LeftFoot  5.90752 0.0212671 0.251232
LeftToes  -5.15793 7.65994e-007 1.12379e-007
Spine  12.1854 3.98418 -1.96659
Spine1  21.9642 10.6571 -8.05816
RightShoulder  0.271572 3.94779 -14.3108
RightArm  -4.63309 23.7949 82.348
RightForeArm  133.947 66.6635 155.431
RightHand  1.76865 -12.5933 -15.5488
LeftShoulder1  0.0339847 -5.07971 5.05648
LeftArm  24.6939 6.72233 -62.9152
LeftForeArm  96.6706 -79.7813 -98.7433
LeftHand  0.461686 -6.95666 -7.96245
HEad  -13.1947 4.53028 -2.97174
RightUpLeg  -33.8048 -12.4675 4.6496
RightLeg  16.6312 15.8039 3.58791
RightFoot  16.953 -0.749199 5.40128
RightToes  -32.6466 -0.162564 -0.269933
805
root  1.6041 34.6567 -17.7642 -149.675 60.6699 -168.295
LeftUpLeg  -29.1724 12.2343 -0.855467
LeftLeg  11.6421 -0.120768 -0.0182355
LeftFoot  5.65748 0.0227652 0.23358
LeftToes  -4.91199 7.65994e-007 1.12379e-007
Spine  12.181 4.03631 -1.94135
Spine1  22.039 10.697 -7.886
RightShoulder  0.268989 3.93179 -13.7773
RightArm  -4.22431 22.8514 82.1215
RightForeArm  134.199 66.6618 155.432
RightHand  1.75274 -12.5463 -15.4662
LeftShoulder1  0.0334691 -5.11736 4.65508
LeftArm  24.9134 6.9483 -62.8042
LeftForeArm  96.9988 -79.78 -98.5436
LeftHand  0.46638 -7.74918 -7.25428
HEad  -11.8443 4.7032 -2.73019
RightUpLeg  -33.7193 -12.65 4.43803
RightLeg  16.3657 15.6891 3.48737
RightFoot  16.4843 -0.700543 5.21074
RightToes  -31.8109 -0.156588 -0.264353
806
root  1.60839 34.6317 -17.8321 -150.367 60.9203 -169.022
LeftUpLeg  -29.1893 12.6598 -1.48214
LeftLeg  11.9242 -0.546691 -0.0805723
LeftFoot  5.33595 0.0258766 0.187776
LeftToes  -4.73007 7.65994e-007 1.12379e-007
Spine  12.1214 4.05144 -1.94735
Spine1  22.0016 10.6478 -7.7324
RightShoulder  0.265599 4.03348 -13.0105
RightArm  -3.73873 21.783 81.907
RightForeArm  134.097 66.664 155.43
RightHand  1.76872 -12.7199 -15.3918
LeftShoulder1  0.0332893 -5.27758 4.07038
LeftArm  25.2897 7.1164 -62.2927
LeftForeArm  97.8458 -79.7555 -99.4137
LeftHand  0.456052 -8.24681 -6.69519
HEad  -10.0898 4.75047 -2.15254
RightUpLeg  -33.4002 -12.5778 4.0037
RightLeg  15.9971 15.1275 3.26511
RightFoot  15.9458 -0.628145 4.85997
RightToes  -30.7714 -0.149269 -0.257292
807
root  1.61622 34.6079 -17.908 -150.859 61.1666 -169.476
LeftUpLeg  -29.0491 13.0788 -1.95496
LeftLeg  11.9883 -0.910888 -0.134373
LeftFoot  5.09329 0.0283862 0.14843
LeftToes  -4.77346 7.65994e-007 1.12379e-007
Spine  11.9971 4.04188 -1.8929
Spine1  21.8716 10.5187 -7.41504
RightShoulder  0.259785 4.05957 -12.1123
RightArm  -3.08373 20.7896 81.5891
RightForeArm  134.215 66.5957 155.514
RightHand  1.74619 -12.6227 -15.3127
LeftShoulder1  0.0331333 -5.2601 3.60955
LeftArm  25.4415 7.15697 -62.2416
LeftForeArm  97.2854 -79.7758 -98.6956
LeftHand  0.461592 -8.32844 -6.70898
HEad  -8.49251 4.38926 -1.39878
RightUpLeg  -33.0943 -12.4562 3.71706
RightLeg  15.7352 14.4039 3.04448
RightFoot  15.5856 -0.567294 4.52079
RightToes  -30.7292 -0.148975 -0.257002
808
root  1.63082 34.578 -17.9804 -151.702 61.5153 -170.202
LeftUpLeg  -28.7094 13.1704 -2.41239
LeftLeg  11.9797 -0.854964 -0.126077
LeftFoot  4.85466 0.0280213 0.151049
LeftToes  -4.75493 7.65994e-007 1.12379e-007
Spine  11.8151 3.97801 -1.88322
Spine1  21.5947 10.3011 -7.22092
RightShoulder  0.25449 4.05177 -11.2286
RightArm  -2.26716 19.929 81.42
RightForeArm  134.595 66.5337 155.589
RightHand  1.72822 -12.5516 -15.2409
LeftShoulder1  0.0326891 -5.37672 3.11149
LeftArm  25.463 7.51082 -62.1216
LeftForeArm  96.24 -79.8021 -97.672
LeftHand  0.458965 -8.44902 -6.5828
HEad  -6.64215 3.81533 -0.507698
RightUpLeg  -32.6335 -11.8003 3.07061
RightLeg  15.5174 13.096 2.72184
RightFoot  15.0032 -0.474207 3.97738
RightToes  -30.4212 -0.148679 -0.25671
809
root  1.65913 34.5356 -18.0502 -152.95 61.735 -171.237
LeftUpLeg  -28.3486 13.4176 -3.01063
LeftLeg  12.1762 -1.12569 -0.169523
LeftFoot  4.48203 0.0291097 0.12856
LeftToes  -4.73076 7.65994e-007 1.12379e-007
Spine  11.6216 3.79901 -1.94314
Spine1  21.26 9.87363 -7.20115
RightShoulder  0.248875 4.06807 -10.245
RightArm  -1.43876 19.1003 81.4563
RightForeArm  134.831 66.4763 155.659
RightHand  1.6855 -12.4906 -14.9335
LeftShoulder1  0.0316448 -5.41981 2.77586
LeftArm  25.5673 7.89612 -61.8311
LeftForeArm  96.1593 -79.8024 -97.6612
LeftHand  0.449449 -8.51405 -6.40764
HEad  -4.82475 2.9785 0.635732
RightUpLeg  -31.9377 -11.1987 2.3254
RightLeg  15.1511 11.4713 2.31333
RightFoot  14.3271 -0.375088 3.36111
RightToes  -30.4987 -0.148256 -0.256292
810
root  1.69146 34.4984 -18.1233 -154.075 62.0527 -172.106
LeftUpLeg  -27.8593 13.7866 -3.54048
LeftLeg  12.2 -1.41243 -0.212938
LeftFoot  4.14048 0.0301423 0.104601
LeftToes  -4.83604 7.65994e-007 1.12379e-007
Spine  11.3579 3.65332 -2.00352
Spine1  20.8034 9.49355 -7.13572
RightShoulder  0.241926 3.97739 -9.33008
RightArm  -0.614207 18.1123 81.517
RightForeArm  135.206 66.3538 155.807
RightHand  1.66997 -12.3854 -14.9224
LeftShoulder1  0.0295518 -5.34752 2.62813
LeftArm  25.7023 8.17012 -61.7711
LeftForeArm  95.1332 -79.8301 -96.3955
LeftHand  0.437401 -8.45577 -6.2867
HEad  -2.6595 1.49567 1.82945
RightUpLeg  -31.3478 -10.7136 1.74092
RightLeg  14.9299 10.1151 2.00258
RightFoot  13.803 -0.303676 2.88591
RightToes  -30.6321 -0.147727 -0.255767
811
root  1.71266 34.47 -18.2018 -155.329 62.568 -173.01
LeftUpLeg  -27.0195 13.8097 -3.95626
LeftLeg  11.7635 -1.15118 -0.164813
LeftFoot  4.07796 0.0286965 0.117009
LeftToes  -5.22255 7.65994e-007 1.12379e-007
Spine  11.1017 3.53099 -2.09305
Spine1  20.3412 9.17566 -7.14774
RightShoulder  0.235675 3.79752 -8.29817
RightArm  0.180934 17.1927 81.4532
RightForeArm  135.653 66.1901 156.002
RightHand  1.63321 -12.3236 -14.6643
LeftShoulder1  0.0266865 -5.3204 2.42242
LeftArm  25.5261 8.5895 -61.751
LeftForeArm  93.9997 -79.8488 -95.3928
LeftHand  0.451405 -8.2461 -6.63141
HEad  -1.00073 -0.366802 2.62899
RightUpLeg  -30.8457 -10.3943 1.1385
RightLeg  15.0327 9.16435 1.83302
RightFoot  13.1794 -0.248547 2.52868
RightToes  -30.3922 -0.147113 -0.255158
812
root  1.73792 34.4458 -18.2761 -156.476 63.0187 -173.719
LeftUpLeg  -26.3324 13.7916 -4.22605
LeftLeg  11.7915 -0.841464 -0.121264
LeftFoot  3.82004 0.0267235 0.135647
LeftToes  -5.56017 7.65994e-007 1.12379e-007
Spine  10.8396 3.32438 -2.11016
Spine1  19.8858 8.68842 -7.05306
RightShoulder  0.22925 3.72054 -7.73202
RightArm  0.761953 16.2376 81.6091
RightForeArm  136.175 66.0276 156.193
RightHand  1.59915 -12.2532 -14.4384
LeftShoulder1  0.0235347 -5.17601 2.2565
LeftArm  25.5753 9.02858 -61.8122
LeftForeArm  92.6413 -79.8693 -94.0051
LeftHand  0.451024 -8.32972 -6.56318
HEad  0.849109 -2.36751 3.33538
RightUpLeg  -30.1561 -9.85527 0.514524
RightLeg  14.8896 8.30527 1.641
RightFoot  12.7397 -0.208025 2.24069
RightToes  -30.4066 -0.146434 -0.254485
